<?xml version="1.0" encoding="UTF-8"?>
<svg xmlns="http://www.w3.org/2000/svg" xmlns:xlink="http://www.w3.org/1999/xlink" width="22px" height="22px" viewBox="0 0 22 22" version="1.1">
<g id="surface1">
<path style="fill:none;stroke-width:2;stroke-linecap:round;stroke-linejoin:round;stroke:rgb(100%,100%,100%);stroke-opacity:1;stroke-miterlimit:4;" d="M 10.99858 7.99858 L 16.00142 7.99858 M 10.99858 12 L 16.00142 12 M 10.99858 16.00142 L 16.00142 16.00142 M 7.99858 16.00142 L 8.011364 16.00142 M 7.99858 12 L 8.011364 12 M 7.99858 7.99858 L 8.011364 7.99858 M 7.201705 4.00142 L 16.798295 4.00142 C 17.919034 4.00142 18.481534 4.00142 18.90767 4.21875 C 19.28267 4.410511 19.589489 4.71733 19.78125 5.09233 C 19.99858 5.518466 19.99858 6.080966 19.99858 7.201705 L 19.99858 16.798295 C 19.99858 17.919034 19.99858 18.481534 19.78125 18.90767 C 19.589489 19.28267 19.28267 19.589489 18.90767 19.78125 C 18.481534 19.99858 17.919034 19.99858 16.798295 19.99858 L 7.201705 19.99858 C 6.080966 19.99858 5.518466 19.99858 5.09233 19.78125 C 4.71733 19.589489 4.410511 19.28267 4.21875 18.90767 C 4.00142 18.481534 4.00142 17.919034 4.00142 16.798295 L 4.00142 7.201705 C 4.00142 6.080966 4.00142 5.518466 4.21875 5.09233 C 4.410511 4.71733 4.71733 4.410511 5.09233 4.21875 C 5.518466 4.00142 6.080966 4.00142 7.201705 4.00142 Z M 7.201705 4.00142 " transform="matrix(0.916667,0,0,0.916667,0,0)"/>
</g>
</svg>
